<?xml version="1.0" standalone="no"?>
<!DOCTYPE svg PUBLIC "-//W3C//DTD SVG 20010904//EN"
 "http://www.w3.org/TR/2001/REC-SVG-20010904/DTD/svg10.dtd">
<svg version="1.0" xmlns="http://www.w3.org/2000/svg"
 width="128.000000pt" height="128.000000pt" viewBox="0 0 128.000000 128.000000"
 preserveAspectRatio="xMidYMid meet">
<metadata>
Created by potrace 1.16, written by Peter Selinger 2001-2019
</metadata>
<g transform="translate(0.000000,128.000000) scale(0.100000,-0.100000)"
fill="#000000" stroke="none">
<path d="M210 1230 l0 -50 -57 0 c-65 0 -103 -19 -134 -66 -18 -27 -19 -56
-19 -524 0 -468 1 -497 19 -524 10 -15 32 -37 47 -47 28 -18 57 -19 574 -19
517 0 546 1 574 19 15 10 37 32 47 47 18 27 19 56 19 524 0 468 -1 497 -19
524 -31 47 -69 66 -133 66 l-58 0 0 50 0 50 -50 0 -50 0 0 -50 0 -50 -330 0
-330 0 0 50 0 50 -50 0 -50 0 0 -50z m0 -200 l0 -50 50 0 50 0 0 50 0 50 330
0 330 0 0 -50 0 -50 50 0 50 0 0 50 c0 49 1 50 30 50 19 0 40 -9 55 -25 21
-20 25 -34 25 -85 l0 -60 -540 0 -540 0 0 60 c0 51 4 65 25 85 15 16 36 25 55
25 29 0 30 -1 30 -50z m970 -550 l0 -331 -25 -24 -24 -25 -491 0 -491 0 -24
25 -25 24 0 331 0 330 540 0 540 0 0 -330z"/>
</g>
</svg>
