<?xml version="1.0" standalone="no"?>
<!DOCTYPE svg PUBLIC "-//W3C//DTD SVG 20010904//EN"
 "http://www.w3.org/TR/2001/REC-SVG-20010904/DTD/svg10.dtd">
<svg version="1.0" xmlns="http://www.w3.org/2000/svg"
 width="512.000000pt" height="512.000000pt" viewBox="0 0 512.000000 512.000000"
 preserveAspectRatio="xMidYMid meet">
<metadata>
Created by potrace 1.16, written by Peter Selinger 2001-2019
</metadata>
<g transform="translate(0.000000,512.000000) scale(0.100000,-0.100000)"
fill="#000000" stroke="none">
<path d="M4640 4399 c-130 -22 -58 45 -1483 -1378 l-1317 -1316 -603 601
c-558 557 -607 603 -665 628 -183 80 -398 17 -507 -148 -46 -68 -65 -135 -65
-226 0 -88 19 -155 60 -219 16 -25 370 -387 787 -803 828 -827 791 -795 933
-817 84 -14 162 -1 249 39 62 29 149 114 1543 1508 1419 1419 1478 1480 1510
1547 31 66 33 76 33 180 0 102 -2 115 -31 175 -79 167 -259 260 -444 229z"/>
</g>
</svg>
