<?xml version="1.0" standalone="no"?>
<!DOCTYPE svg PUBLIC "-//W3C//DTD SVG 20010904//EN"
 "http://www.w3.org/TR/2001/REC-SVG-20010904/DTD/svg10.dtd">
<svg version="1.0" xmlns="http://www.w3.org/2000/svg"
 width="128.000000pt" height="128.000000pt" viewBox="0 0 128.000000 128.000000"
 preserveAspectRatio="xMidYMid meet">
<metadata>
Created by potrace 1.16, written by Peter Selinger 2001-2019
</metadata>
<g transform="translate(0.000000,128.000000) scale(0.100000,-0.100000)"
fill="#000000" stroke="none">
<path d="M1035 1266 c-16 -8 -163 -148 -325 -312 l-296 -299 -38 -142 c-21
-79 -36 -149 -32 -158 8 -23 46 -19 190 21 l131 36 293 291 c161 161 300 304
308 319 8 15 14 49 14 76 0 55 -33 112 -90 152 -40 28 -113 36 -155 16z m136
-105 c46 -46 50 -77 15 -118 l-25 -28 -70 70 -71 69 22 23 c35 37 82 31 129
-16z m-293 -428 l-228 -228 -70 70 -70 70 227 227 228 228 70 -70 70 -70 -227
-227z"/>
<path d="M123 1150 c-45 -10 -81 -36 -103 -73 -19 -31 -20 -54 -20 -503 l0
-471 23 -34 c47 -70 35 -69 585 -69 547 0 526 -2 579 67 28 36 28 37 31 210 4
182 0 203 -39 203 -32 0 -39 -34 -39 -198 0 -157 0 -159 -26 -183 l-26 -24
-466 -3 c-338 -2 -474 1 -495 9 -58 24 -57 13 -57 497 l0 444 29 29 29 29 164
0 c114 0 168 4 176 12 18 18 14 46 -7 58 -22 11 -289 12 -338 0z"/>
</g>
</svg>
