<?xml version="1.0" standalone="no"?>
<!DOCTYPE svg PUBLIC "-//W3C//DTD SVG 20010904//EN"
 "http://www.w3.org/TR/2001/REC-SVG-20010904/DTD/svg10.dtd">
<svg version="1.0" xmlns="http://www.w3.org/2000/svg"
 width="128.000000pt" height="128.000000pt" viewBox="0 0 128.000000 128.000000"
 preserveAspectRatio="xMidYMid meet">
<metadata>
Created by potrace 1.16, written by Peter Selinger 2001-2019
</metadata>
<g transform="translate(0.000000,128.000000) scale(0.100000,-0.100000)"
fill="#000000" stroke="none">
<path d="M459 1251 c-16 -16 -29 -40 -29 -53 0 -46 -21 -98 -46 -115 -24 -15
-29 -15 -94 6 -68 23 -70 23 -107 5 -31 -16 -49 -38 -99 -124 -33 -58 -63
-115 -66 -128 -11 -41 10 -85 62 -130 69 -59 68 -83 -5 -149 -79 -73 -78 -102
8 -251 51 -88 69 -110 100 -126 38 -18 39 -18 103 4 96 32 122 16 144 -92 18
-92 32 -98 210 -98 178 0 192 6 210 98 22 108 48 124 144 92 64 -22 65 -22
103 -4 31 16 49 38 100 126 86 149 87 178 8 251 -73 67 -73 87 0 154 79 73 78
102 -8 251 -51 88 -69 110 -100 126 -38 18 -39 18 -103 -4 -96 -32 -122 -16
-144 92 -18 92 -31 98 -212 98 l-150 0 -29 -29z m281 -75 c0 -2 5 -27 10 -56
12 -66 50 -116 104 -141 51 -23 89 -24 150 -3 26 9 48 15 50 13 2 -2 24 -41
50 -86 l47 -82 -42 -38 c-49 -44 -69 -86 -69 -143 0 -57 20 -99 69 -143 l42
-38 -47 -82 c-26 -45 -48 -84 -50 -86 -2 -2 -24 4 -50 13 -61 21 -99 20 -150
-3 -54 -25 -92 -75 -104 -141 -5 -29 -10 -54 -10 -56 0 -2 -45 -4 -100 -4 -55
0 -100 2 -100 4 0 2 -5 27 -10 56 -12 66 -50 116 -104 141 -51 23 -89 24 -150
3 -26 -9 -48 -15 -50 -13 -2 2 -24 41 -50 86 l-47 82 42 38 c49 44 69 86 69
143 0 57 -20 99 -69 143 l-42 38 47 82 c26 45 48 84 50 86 2 2 24 -4 50 -13
61 -21 99 -20 150 3 54 25 92 75 104 141 5 29 10 54 10 56 0 2 45 4 100 4 55
0 100 -2 100 -4z"/>
<path d="M550 877 c-49 -16 -133 -102 -148 -153 -38 -130 16 -256 132 -310
163 -76 355 43 356 220 0 79 -19 126 -75 181 -71 71 -166 93 -265 62z m158
-117 c42 -26 72 -76 72 -120 0 -44 -30 -94 -72 -120 -117 -71 -259 71 -188
188 26 42 76 72 120 72 19 0 50 -9 68 -20z"/>
</g>
</svg>
